<svg width="82" height="127" viewBox="0 0 82 127" fill="none" xmlns="http://www.w3.org/2000/svg">
<path d="M81.2532 82.3262C81.2532 91.389 78.1637 100.452 73.2204 107.867C65.8054 118.577 54.0651 126.198 40.8829 126.198C27.7008 126.198 11.0171 115.076 4.42601 100.452C1.95436 94.8905 0.512573 88.7114 0.512573 82.5322C0.512573 76.3531 1.13047 74.2933 2.3663 70.5859C7.51558 54.1082 22.7575 42.1619 40.8829 42.1619C59.0084 42.1619 76.7219 55.9619 80.4294 74.4993C81.0473 77.1769 81.2532 79.8546 81.2532 82.5322V82.3262Z" fill="url(#paint0_linear_5_871)"/>
<path d="M21.5216 47.929L20.0799 39.6901L61.686 38.6603L58.5964 46.8991C58.5964 46.8991 38.4113 62.141 21.5216 47.723V47.929Z" fill="url(#paint1_linear_5_871)"/>
<path d="M20.0798 39.6901C16.3724 31.2452 63.3337 35.1587 61.686 38.6602C59.6263 42.9856 24.6112 49.7826 20.0798 39.6901Z" fill="#8354AB"/>
<path d="M30.9963 38.6604C32.8501 35.9828 46.4441 36.3947 49.5337 38.6604C52.6233 40.7201 28.5247 42.3679 30.9963 38.6604Z" fill="url(#paint2_linear_5_871)"/>
<g style="mix-blend-mode:multiply" opacity="0.5">
<path d="M21.7276 48.5471C21.7276 48.5471 21.3157 43.3978 21.7276 42.9859C22.1395 42.7799 31.4083 45.4575 37.5874 46.2814C43.7665 46.8993 41.7068 52.2546 40.677 52.6665C39.6471 52.8725 31.6142 55.7561 21.5216 48.5471H21.7276Z" fill="#BE5286"/>
</g>
<g style="mix-blend-mode:soft-light" opacity="0.2">
<path d="M43.3546 52.6664C41.2949 52.6664 43.1486 46.0753 43.3546 45.2514C43.5606 44.4275 52.8293 42.9857 53.2413 42.9857C53.6532 42.9857 52.6233 50.1947 51.7995 50.4007C50.9756 50.6067 44.7964 52.4604 43.1486 52.6664H43.3546Z" fill="white"/>
</g>
<g style="mix-blend-mode:multiply" opacity="0.5">
<path d="M81.2532 82.3262C81.2532 104.571 63.1278 126.198 40.8829 126.198C18.6381 126.198 0.512573 104.571 0.512573 82.3262C0.512573 60.0813 1.13047 74.0873 2.3663 70.3798C6.48573 61.3171 27.9067 110.75 49.7397 113.428C71.5726 116.311 80.8413 95.7143 80.4294 76.5589C80.4294 75.7351 80.4294 74.9112 80.4294 74.2933C81.0473 76.9709 81.2532 79.6486 81.2532 82.3262Z" fill="#BE5286"/>
</g>
<g style="mix-blend-mode:soft-light" opacity="0.3">
<path d="M30.1724 55.756C18.2261 55.962 21.3157 96.7442 43.7665 107.661C66.0114 118.371 82.901 93.2427 80.4294 76.765C77.9577 60.2873 64.1577 52.6664 59.6263 52.2545C55.0949 51.8425 46.4442 55.55 30.1724 55.756Z" fill="white"/>
</g>
<g style="mix-blend-mode:multiply" opacity="0.8">
<path d="M21.3157 46.8991C21.3157 46.8991 27.4948 54.52 39.6471 53.4902C52.0054 52.2544 58.5964 46.4872 58.5964 46.4872H59.6263C59.6263 46.6932 49.9457 53.2842 35.5277 54.726C21.1097 56.3738 21.1097 46.8991 21.1097 46.8991H21.3157Z" fill="#6D2F55"/>
</g>
<g style="mix-blend-mode:soft-light">
<path d="M73.2204 107.867C65.8055 118.577 54.0651 126.198 40.883 126.198C27.7008 126.198 11.0171 115.076 4.42606 100.452C5.24994 102.099 12.253 115.488 27.2889 121.873C43.5606 128.67 58.3905 116.517 67.2473 109.514C69.101 108.073 71.1607 107.661 73.0144 107.867H73.2204Z" fill="#A2FFFF"/>
</g>
<g style="mix-blend-mode:multiply" opacity="0.5">
<path d="M12.6648 110.132C6.69167 102.305 11.2231 93.8606 22.1395 97.9801C33.056 102.099 42.7367 111.78 50.1516 113.84C57.7725 115.9 33.4679 136.909 12.6648 110.132Z" fill="#BE5286"/>
</g>
<g style="mix-blend-mode:soft-light" opacity="0.5">
<path d="M53.4471 63.3769C49.7397 64.6127 52.2113 74.7053 56.5367 73.8814C60.8621 73.0576 58.3905 61.7291 53.4471 63.3769Z" fill="white"/>
</g>
<g style="mix-blend-mode:soft-light">
<path d="M1.54244 92.2129C4.22006 97.7741 1.54242 82.3262 7.51559 66.2605C11.429 55.7559 18.432 48.547 18.432 48.547C18.432 48.547 -5.87254 63.9948 1.33645 92.2129H1.54244Z" fill="#A2FFFF"/>
</g>
<path d="M33.674 66.0545C32.4382 64.4068 30.7904 63.3769 28.5247 63.1709C27.0829 63.1709 25.6411 63.1709 23.7873 63.5829C18.0202 65.0247 13.2828 69.762 10.8112 75.1173C7.72162 82.1203 8.75148 89.7412 10.8112 91.595C12.459 93.0368 13.4888 93.2427 14.3127 93.0367C15.1365 93.0367 15.5485 92.6248 15.9605 93.0367C15.9605 93.0367 15.9605 93.2427 16.1665 93.4487C16.3724 94.2726 16.1665 95.5084 16.1665 96.5383C15.7545 97.7741 15.3425 98.804 15.3425 98.804C16.1664 101.07 23.9933 102.923 24.6112 102.511C24.6112 102.099 24.6112 98.598 24.6112 98.598C24.6112 98.598 25.2291 100.658 25.8471 101.894C25.8471 102.305 26.259 102.717 26.259 102.717C26.259 102.717 26.671 102.717 27.2889 102.717C28.9367 102.305 32.0262 101.07 32.0262 100.452C31.8202 99.8338 28.7307 95.5084 28.3187 93.2427C28.3187 92.6248 28.9366 92.4188 29.9665 92.6248C29.9665 92.6248 29.9665 92.6248 30.1725 92.6248C31.2023 92.6248 32.2322 93.0367 33.262 93.0367C34.7038 93.0367 35.9397 92.6248 36.3516 90.977C36.3516 90.1531 36.5576 89.3293 36.7636 88.5054C37.3815 81.7083 37.3814 71.6157 33.8799 66.6724L33.674 66.0545ZM23.7873 92.4188C22.3455 92.4188 19.668 91.8009 19.256 91.389C18.2262 90.5651 20.0799 87.4755 20.9038 86.4457C21.1097 86.2397 21.5217 86.4457 21.9336 86.6517C22.9635 87.6815 24.4053 90.5651 24.8172 91.595C24.8172 92.0069 24.6112 92.2128 23.9933 92.2128L23.7873 92.4188ZM14.5186 86.8576C12.6649 86.8576 10.8112 86.0337 10.8112 82.7382C10.8112 76.559 13.9008 73.0575 16.9903 73.6754C16.9903 73.6754 16.9903 73.6754 17.1963 73.6754C20.4918 74.4993 20.2859 81.7083 19.05 83.768C18.2261 85.2098 16.1664 86.4457 14.3127 86.6517L14.5186 86.8576ZM28.7306 87.4755C26.465 87.4755 23.5814 85.8277 22.5515 83.974C21.3157 81.7083 22.5516 74.4993 26.465 73.4695C27.2889 73.2635 27.9068 73.2635 28.5247 73.4695C30.9964 74.0874 32.2322 77.3829 32.0262 83.1501C32.0262 86.0337 30.5844 87.2696 28.7306 87.4755Z" fill="#479DFF"/>
<path d="M33.674 66.0545C32.4382 64.4068 30.7904 63.3769 28.5247 63.1709C27.4949 63.1709 26.259 63.1709 24.8172 63.5829C19.05 65.0247 14.3127 69.762 11.841 75.1173C8.75147 82.1203 9.78132 89.7412 11.841 91.595C12.6649 92.4188 13.4888 92.8307 14.1067 93.0367C14.7246 93.0367 15.3425 93.0367 15.7545 93.0367C16.3724 93.0367 16.7844 92.6248 17.1963 93.4487C17.4023 94.2726 17.1963 95.5084 17.1963 96.5383C16.7844 97.7741 16.3724 98.8039 16.3724 98.8039C16.9903 100.452 22.1396 102.099 24.4053 102.511C24.4053 102.099 24.4053 98.598 24.4053 98.598C24.4053 97.3621 25.4351 98.598 25.4351 98.598C25.4351 98.598 26.465 101.688 26.8769 102.511C28.5247 102.099 31.6143 100.864 31.6143 100.246C31.4083 99.6278 28.3187 95.3024 27.9068 93.0367C27.9068 92.4188 28.5247 92.2129 29.5546 92.4188C29.5546 92.4188 29.5545 92.4188 29.7605 92.4188C29.9665 92.4188 30.3785 92.4188 30.5844 92.4188C31.2023 92.4188 32.0262 92.6248 32.8501 92.6248C34.2919 92.6248 35.5277 92.2129 35.9396 90.5651C35.9396 89.7412 36.1456 88.9173 36.3516 88.0934C36.9695 81.2964 36.9695 71.2038 33.468 66.2605L33.674 66.0545ZM14.7246 86.8576C12.8709 86.8576 11.0172 86.0337 11.0172 82.7382C11.0172 76.559 14.1067 73.0575 17.1963 73.6754C17.6082 73.6754 18.2261 73.6754 18.6381 73.6754C21.9336 74.4993 21.7276 81.7083 20.4918 83.768C19.6679 85.4158 16.7843 87.0636 14.7246 86.6517V86.8576ZM23.7873 92.4188C22.3455 92.4188 19.668 91.8009 19.256 91.389C18.2262 90.5651 20.2858 87.6815 20.9038 86.4457C20.9038 86.2397 21.9336 86.0337 22.3456 86.4457C22.3456 86.4457 25.4351 90.5651 25.847 91.8009C26.053 92.4189 25.0232 92.4188 23.9933 92.4188H23.7873ZM33.262 83.3561C33.262 87.0636 30.9963 87.8875 28.9366 87.4755C26.6709 87.4755 23.7873 85.8277 22.7575 83.974C21.5217 81.7083 22.7575 74.4993 26.6709 73.4695C27.4948 73.2635 28.1127 73.2635 28.7306 73.4695C32.0262 73.0575 33.468 76.765 33.262 83.3561Z" fill="#47FFFF"/>
<path d="M46.0323 36.6005C45.8263 37.8364 45.4144 39.0722 45.0025 40.514L35.7337 40.926C35.7337 40.926 35.3218 37.4244 35.5278 36.8065C35.5278 36.6006 35.5278 36.1886 35.7337 35.9827C36.1457 34.7468 36.7636 32.0692 37.9994 29.5975C39.4412 26.096 41.295 22.5945 43.7666 21.1527C43.7666 21.1527 48.7099 25.8901 46.2382 36.8065L46.0323 36.6005Z" fill="url(#paint3_linear_5_871)"/>
<path d="M43.5606 20.7408C43.5606 20.7408 43.1486 21.1528 42.7367 21.7707C41.0889 23.8304 37.3815 29.1856 35.7337 35.5707C35.7337 35.7767 35.7337 36.1886 35.5277 36.3946C35.5277 36.3946 34.0859 23.8304 34.4978 18.0632C34.9098 12.502 38.8232 8.79451 39.4411 8.38257C39.4411 8.38257 43.9725 13.5318 43.7666 20.7408H43.5606Z" fill="url(#paint4_linear_5_871)"/>
<path d="M39.2352 8.58856C38.8232 9.0005 34.9098 13.9438 34.2919 18.2692C34.2919 18.2692 26.053 15.7975 25.0232 10.6483C24.4053 7.14676 23.9933 3.85126 23.9933 1.99752C23.9933 1.99752 23.9933 1.79152 23.9933 1.58555V1.17364C23.9933 0.967672 23.9933 0.761676 23.9933 0.761676C23.9933 0.761676 32.0262 -0.0622091 34.9098 1.79153C39.0292 4.46916 39.4412 8.58856 39.4412 8.58856H39.2352Z" fill="url(#paint5_linear_5_871)"/>
<path d="M25.0232 10.6483C25.0232 10.6483 20.2858 10.6483 16.5783 8.17666C14.9306 7.1468 13.6948 6.11696 13.0769 5.29307C12.047 4.26322 11.841 3.85125 11.841 3.85125C11.841 3.85125 16.7843 -2.32787 24.1993 0.967667C24.1993 0.967667 24.1993 0.967629 24.1993 1.37957V1.79154C24.1993 3.64528 24.4053 7.55872 25.2292 10.8543L25.0232 10.6483Z" fill="url(#paint6_linear_5_871)"/>
<g style="mix-blend-mode:multiply" opacity="0.3">
<path d="M46.0322 36.6007C45.8263 37.8365 45.4143 39.0723 45.0024 40.5141L35.7337 40.9261C35.7337 40.9261 35.3217 37.4246 35.5277 36.8067C35.5277 36.8067 34.0859 24.2424 34.4978 18.4752C34.4978 18.4752 26.259 16.0036 25.2291 10.8543C25.2291 10.8543 20.4918 10.8543 16.7843 8.38266C15.1365 7.35281 13.9007 6.3229 13.2828 5.49902C13.9007 6.11693 18.0202 9.20655 21.3157 9.41252C25.0232 9.82446 22.3455 2.20348 22.7575 1.37959C23.1694 0.555709 23.9933 0.761718 24.1993 0.967689C24.1993 0.967689 24.1993 0.967652 24.1993 1.37959C24.1993 1.37959 24.1993 1.58559 24.1993 1.79156C24.1993 1.79156 24.1993 1.99756 24.1993 2.20353C24.1993 4.67518 24.8172 10.2364 26.6709 12.914C28.9366 16.6215 34.0859 17.0334 34.0859 17.0334C34.0859 17.0334 33.674 12.2961 35.5277 10.8543C37.1755 9.61845 39.4411 8.79457 39.4411 8.79457C39.2352 9.00054 35.7336 13.9439 34.9098 20.535C34.0859 27.332 35.3217 31.4514 35.9396 32.0694C35.9396 32.2753 36.9695 31.0395 37.9993 29.3917C39.4411 26.92 41.5009 23.6245 42.9427 21.9767C43.3546 21.5648 43.5606 21.3588 43.7666 21.1528C43.7666 21.1528 37.7934 29.8036 37.3814 34.541C36.7635 39.2783 44.3844 40.7201 46.4441 36.6007H46.0322Z" fill="#A42F55"/>
</g>
<g style="mix-blend-mode:soft-light" opacity="0.5">
<path d="M38.4113 44.8394C35.1157 44.0155 41.5008 40.102 48.9158 39.4841C56.5367 38.8662 58.8024 40.72 58.5964 40.72C58.1845 40.72 47.8859 44.4275 38.4113 44.8394Z" fill="white"/>
</g>
<g style="mix-blend-mode:multiply" opacity="0.3">
<path d="M25.0231 11.0601C25.4351 8.58846 32.2321 11.0601 34.0859 18.2691C34.0859 18.2691 27.0829 15.5915 25.0231 11.0601Z" fill="#A42F55"/>
</g>
<g style="mix-blend-mode:multiply" opacity="0.3">
<path d="M34.9097 33.7171C34.9097 33.7171 38.4113 31.0395 38.8232 25.2723C39.2352 19.5051 34.2919 18.2693 34.2919 18.2693C34.2919 18.2693 33.6739 26.0962 34.9097 33.7171Z" fill="#A42F55"/>
</g>
<g style="mix-blend-mode:soft-light" opacity="0.5">
<path d="M25.641 2.40935C23.9933 3.02726 29.1425 10.4423 30.7903 11.2662C32.6441 12.09 36.9695 9.00044 36.7635 6.73476C36.7635 4.46908 28.9366 0.967603 25.4351 2.20343L25.641 2.40935Z" fill="white"/>
</g>
<g style="mix-blend-mode:soft-light" opacity="0.5">
<path d="M40.2651 12.2961C36.7635 13.12 37.5875 17.4454 38.8233 21.5648C40.2651 25.6843 42.7367 21.5648 42.3248 18.2693C41.9128 14.9738 40.0591 12.2961 40.0591 12.2961H40.2651Z" fill="white"/>
</g>
<g style="mix-blend-mode:soft-light" opacity="0.5">
<path d="M41.0889 26.7141C39.0292 29.1858 37.7934 34.953 38.8233 37.0127C40.0591 38.8664 44.3844 39.8963 45.4143 32.6873C46.6501 25.4783 40.883 26.9201 40.883 26.9201L41.0889 26.7141Z" fill="white"/>
</g>
<g style="mix-blend-mode:multiply" opacity="0.5">
<path d="M76.9279 88.9174C76.9279 89.3293 76.7219 89.7413 76.516 90.1532C74.8682 93.6547 69.307 97.5682 66.2174 95.9204C65.1875 95.3025 64.5696 94.4786 64.3637 93.4488C63.5398 89.9472 67.0413 83.9741 69.101 80.6785C71.7786 76.3531 77.5458 85.2099 76.7219 88.9174H76.9279Z" fill="#BE8186"/>
</g>
<g style="mix-blend-mode:multiply" opacity="0.5">
<path d="M62.5099 99.628C62.5099 100.658 62.0979 101.894 61.686 103.541C60.6561 106.837 57.3607 104.365 56.3308 101.894C56.3308 101.482 56.1248 101.07 56.1248 100.658C56.1248 97.7742 59.2143 95.0966 61.686 96.3324C62.5099 96.7444 62.7159 97.9802 62.5099 99.834V99.628Z" fill="#BE8186"/>
</g>
<g style="mix-blend-mode:multiply" opacity="0.5">
<path d="M76.9279 88.9172C76.9279 89.3291 76.7219 89.7411 76.516 90.153H76.31C76.31 90.153 76.516 89.1232 75.4861 86.2396C74.4563 83.15 71.9846 79.8545 69.101 82.3261C66.2174 84.7978 64.5696 93.2426 64.3637 93.6546C63.5398 90.1531 67.0413 84.1799 69.101 80.8843C71.7786 76.5589 77.5458 85.4157 76.7219 89.1232L76.9279 88.9172Z" fill="#BE5286"/>
</g>
<g style="mix-blend-mode:multiply" opacity="0.5">
<path d="M62.5099 99.6278C62.5099 99.6278 60.4502 95.9203 58.3905 96.7442C56.3308 97.5681 56.3308 101.687 56.3308 101.687C56.3308 101.276 56.1248 100.864 56.1248 100.452C56.1248 97.5681 59.2143 94.8904 61.686 96.1262C62.5099 96.5382 62.7159 97.774 62.5099 99.6278Z" fill="#BE5286"/>
</g>
<path d="M31.6142 44.8394C31.6142 44.8394 36.5575 45.8693 45.6203 45.2514C54.683 44.6334 61.0681 39.4841 61.0681 39.4841C61.0681 39.4841 47.2681 45.8693 31.6142 45.0454V44.8394Z" fill="#BE9AD1"/>
<defs>
<linearGradient id="paint0_linear_5_871" x1="40.8829" y1="126.198" x2="40.8829" y2="41.9559" gradientUnits="userSpaceOnUse">
<stop stop-color="#420C57"/>
<stop offset="1" stop-color="#66319A"/>
</linearGradient>
<linearGradient id="paint1_linear_5_871" x1="20.0799" y1="46.4872" x2="61.686" y2="46.4872" gradientUnits="userSpaceOnUse">
<stop stop-color="#511881"/>
<stop offset="1" stop-color="#591A8E"/>
</linearGradient>
<linearGradient id="paint2_linear_5_871" x1="30.7903" y1="38.8664" x2="49.7397" y2="38.8664" gradientUnits="userSpaceOnUse">
<stop stop-color="#511881"/>
<stop offset="1" stop-color="#591A8E"/>
</linearGradient>
<linearGradient id="paint3_linear_5_871" x1="41.089" y1="40.72" x2="41.089" y2="20.7408" gradientUnits="userSpaceOnUse">
<stop stop-color="#D4652C"/>
<stop offset="1" stop-color="#FF9500"/>
</linearGradient>
<linearGradient id="paint4_linear_5_871" x1="38.8232" y1="36.6006" x2="38.8232" y2="8.58854" gradientUnits="userSpaceOnUse">
<stop stop-color="#D4652C"/>
<stop offset="1" stop-color="#FF9500"/>
</linearGradient>
<linearGradient id="paint5_linear_5_871" x1="31.6143" y1="18.2692" x2="31.6143" y2="0.555704" gradientUnits="userSpaceOnUse">
<stop stop-color="#D4652C"/>
<stop offset="1" stop-color="#FF9500"/>
</linearGradient>
<linearGradient id="paint6_linear_5_871" x1="18.2261" y1="10.6483" x2="18.2261" y2="-0.268161" gradientUnits="userSpaceOnUse">
<stop stop-color="#D4652C"/>
<stop offset="1" stop-color="#FF9500"/>
</linearGradient>
</defs>
</svg>
