<svg width="128" height="98" viewBox="0 0 128 98" fill="none" xmlns="http://www.w3.org/2000/svg">
<path d="M104.864 19.9651C113.72 13.58 115.78 32.1174 111.249 39.7383C106.717 47.1533 92.7113 46.5354 86.9441 47.7712C81.1769 49.007 84.8844 56.422 84.8844 56.422L120.105 45.0936L124.225 21.6129L111.661 16.0516C111.661 16.0516 106.717 17.0815 105.07 19.9651H104.864Z" fill="url(#paint0_linear_5_3538)"/>
<path d="M22.4751 19.9651C13.6183 13.58 11.5586 32.1174 16.09 39.7383C20.6214 47.1533 34.6274 46.5354 40.3946 47.7712C46.1618 49.007 42.4543 56.422 42.4543 56.422L7.43917 45.0936L3.31975 21.6129L15.884 16.0516C15.884 16.0516 20.8273 17.0815 22.4751 19.9651Z" fill="url(#paint1_linear_5_3538)"/>
<path d="M97.4485 18.9352C97.4485 18.9352 103.834 13.786 118.664 14.1979C133.494 14.6098 126.079 39.7383 120.105 47.9772C114.544 55.8041 94.7709 52.3026 91.0634 54.3623C87.356 56.422 90.4455 61.1593 89.0037 61.9832C87.5619 62.8071 82.8246 57.8638 84.0604 53.7444C85.0902 49.419 105.893 47.1533 113.308 40.3562C120.929 33.3532 118.664 19.5531 111.866 18.5233C104.04 17.4934 103.01 21.6129 102.598 26.3502C102.186 30.8816 94.565 32.1174 94.565 32.1174L97.4485 18.9352Z" fill="url(#paint2_linear_5_3538)"/>
<path d="M38.9528 61.9832C38.7468 61.9832 38.5408 61.9832 38.5408 61.9832C38.5408 61.9832 38.5409 61.9832 38.3349 61.9832C36.8931 61.1593 39.9827 56.422 36.2752 54.3623C32.5677 52.3026 12.7944 55.8041 7.2332 47.9772C1.26003 39.7383 -6.1549 14.6098 8.67502 14.1979C23.7109 13.786 29.89 18.9352 29.89 18.9352L32.7737 32.1174C32.7737 32.1174 25.1527 30.8816 24.7407 26.3502C24.3288 21.6128 23.299 17.4934 15.472 18.5233C8.675 19.3472 6.20338 33.3532 14.0303 40.3562C21.4452 47.1533 42.2483 49.6249 43.2782 53.7444C43.2782 53.7444 43.2782 54.1563 43.2782 54.3623C43.6901 57.8638 40.8065 61.5713 38.9528 61.9832Z" fill="url(#paint3_linear_5_3538)"/>
<g style="mix-blend-mode:multiply" opacity="0.2">
<path d="M89.4158 55.8042C87.5621 52.9206 101.156 46.7414 108.777 45.5056C116.604 44.4757 118.664 47.7713 118.664 48.5952C118.664 49.419 115.986 52.3026 106.511 53.1265C97.2427 53.9504 92.2994 52.5086 89.4158 55.5982V55.8042Z" fill="#FF4D74"/>
</g>
<g style="mix-blend-mode:multiply" opacity="0.2">
<path d="M14.8542 52.3026C5.17353 47.9772 24.3288 47.1534 32.3617 49.2131C40.3946 51.2728 39.5707 56.2161 38.7468 56.2161C37.9229 56.2161 38.3349 54.1564 35.0393 53.9504C31.7438 53.7444 18.3557 53.5385 15.0602 52.3026H14.8542Z" fill="#FF4D74"/>
</g>
<path d="M3.31975 15.8457C9.91083 10.0785 28.6542 12.3441 28.6542 12.3441L29.89 18.7293C29.89 18.7293 10.9407 10.9024 3.52573 15.6397L3.31975 15.8457Z" fill="url(#paint4_linear_5_3538)"/>
<path d="M100.95 10.6964C100.95 10.6964 118.664 10.0785 122.577 15.2278C122.577 15.2278 115.162 11.5203 98.4784 18.3174L100.95 10.9024V10.6964Z" fill="url(#paint5_linear_5_3538)"/>
<path d="M100.95 11.9321C100.95 11.9321 97.0366 27.9979 93.3291 39.5323C93.3291 39.5323 93.3291 39.7383 93.3291 39.9442C93.3291 39.9442 93.3291 39.9442 93.3291 40.1502C92.0933 43.8577 90.6515 47.1532 89.6217 49.0069C85.0903 56.01 68.4067 63.219 66.347 75.9892C65.935 79.0788 66.347 81.5504 67.7888 83.4041C71.2903 88.5534 79.7351 89.5833 81.1769 90.4072C82.8247 91.849 84.4724 95.9684 84.4724 95.9684C84.4724 95.9684 75.2037 97.4102 63.6693 97.4102C52.135 97.4102 43.0722 95.9684 43.0722 95.9684C43.0722 95.9684 44.72 91.643 46.5738 90.4072C48.0156 89.3773 56.8722 88.5534 60.3737 82.9922C61.6096 81.1385 62.2276 78.8728 61.6096 75.7832C59.5499 63.013 42.4543 55.598 37.923 48.801C35.2453 44.8875 32.7737 33.9711 31.1259 25.1143C29.6841 18.1113 28.8602 12.55 28.8602 12.55L64.0813 18.1113L101.362 11.9321H100.95Z" fill="url(#paint6_linear_5_3538)"/>
<path d="M29.478 9.25464C37.5109 0.191912 78.7051 -5.16333 97.8605 7.40092C119.487 21.6129 16.9138 23.2607 29.478 9.25464Z" fill="url(#paint7_linear_5_3538)"/>
<path d="M39.1587 10.4904C46.3677 16.6696 84.0605 16.6696 91.6814 10.4904C96.8307 6.16504 80.765 2.45755 64.6992 2.66353C49.4573 2.66353 34.6274 6.57699 39.1587 10.4904Z" fill="url(#paint8_linear_5_3538)"/>
<g style="mix-blend-mode:multiply" opacity="0.3">
<path d="M93.1232 40.1503C91.8874 43.8578 90.4456 47.1533 89.4157 49.0071C84.8844 56.0101 68.2007 63.2191 66.141 75.9893C65.7291 79.0789 66.1409 81.5505 67.5827 83.4043C63.8752 87.3177 62.0215 86.2879 60.3737 83.1983C61.6096 81.3446 62.2275 79.0789 61.6096 75.9893C59.5499 63.2191 42.4543 55.8041 37.9229 49.0071C35.2453 45.0936 32.7737 34.1771 31.1259 25.3204V24.9084C31.1259 24.9084 34.2155 50.6549 54.4006 56.422C74.3798 62.1892 90.0336 48.8011 93.3291 40.1503H93.1232Z" fill="#DE5155"/>
</g>
<g style="mix-blend-mode:screen" opacity="0.5">
<path d="M43.8961 53.1264C44.7199 51.2727 53.9887 58.6877 61.8156 61.1593C69.8485 63.631 63.4633 68.9862 60.3738 68.1623C57.4902 67.3384 45.5438 54.9802 43.8961 53.1264Z" fill="#FF450C"/>
</g>
<g style="mix-blend-mode:multiply" opacity="0.5">
<path d="M84.2665 96.1745C84.2665 96.1745 74.9977 97.6163 63.4633 97.6163C51.9289 97.6163 42.8662 96.1745 42.8662 96.1745C42.8662 96.1745 44.514 91.849 46.3677 90.6132C45.5438 94.5267 75.6156 91.4371 80.9709 90.6132C82.6186 92.055 84.2665 96.1745 84.2665 96.1745Z" fill="#DE5155"/>
</g>
<g style="mix-blend-mode:multiply" opacity="0.5">
<path d="M67.7888 97.4103C62.6395 96.5864 61.8156 93.7028 64.6992 92.261C66.553 91.4371 70.2605 91.6431 73.3501 91.2311C81.7949 90.6132 83.0306 95.5565 82.8247 95.7625C82.8247 96.1744 72.1142 97.2043 67.7888 97.2043V97.4103Z" fill="#DE5155"/>
</g>
<g style="mix-blend-mode:screen" opacity="0.5">
<path d="M54.1946 92.467C53.5766 92.467 53.1648 96.3804 53.7827 96.7924C54.4006 97.2043 59.9618 97.4103 60.7857 97.4103C61.6095 97.4103 62.6394 93.2908 63.4633 92.6729C64.2871 92.055 53.9886 92.467 53.9886 92.467H54.1946Z" fill="#FF450C"/>
</g>
<g style="mix-blend-mode:soft-light">
<path d="M52.5468 92.0551C49.4572 92.0551 54.1947 87.7297 60.9917 87.7297C67.7888 87.7297 70.6723 89.7894 70.6723 90.4073C70.6723 91.0252 60.5797 92.2611 52.3409 92.0551H52.5468Z" fill="white"/>
</g>
<g style="mix-blend-mode:screen" opacity="0.5">
<path d="M34.4215 15.8457C32.3617 15.0218 33.5975 50.8608 54.1946 56.216C74.7918 61.7773 91.6814 28.8219 93.1232 22.2308C94.565 15.6397 69.6426 21.6129 53.3708 18.9353C37.3051 16.4636 34.4215 15.8457 34.4215 15.8457Z" fill="#FF450C"/>
</g>
<g style="mix-blend-mode:screen" opacity="0.5">
<path d="M78.9112 4.10529C66.3469 5.13514 68.4067 12.962 70.2605 14.4038C72.1142 15.8456 88.5919 12.5501 91.0635 9.25457C93.5352 5.95903 78.9112 4.10529 78.9112 4.10529Z" fill="#FF450C"/>
</g>
<path d="M78.9111 4.10529C73.7618 5.13514 79.941 9.66652 82.4127 9.46055C84.8843 9.46055 87.562 5.75307 85.7083 5.34113C83.8545 4.92918 78.9111 4.10529 78.9111 4.10529Z" fill="white"/>
<g style="mix-blend-mode:multiply" opacity="0.2">
<path d="M112.073 15.2278C111.249 16.0517 117.634 18.9353 119.282 27.5861C120.929 36.2369 126.902 28.8219 126.696 22.2308C126.49 15.8457 118.664 13.786 112.073 15.0219V15.2278Z" fill="#FF4D74"/>
</g>
<g style="mix-blend-mode:multiply" opacity="0.2">
<path d="M1.26004 27.792C1.67198 33.5591 5.79142 36.2368 6.6153 36.0308C7.43919 36.0308 5.99739 21.6128 15.884 16.8755C20.0034 14.8158 4.34965 15.4337 2.90785 16.8755C1.46605 18.3173 1.05408 22.2307 1.46602 27.792H1.26004Z" fill="#FF4D74"/>
</g>
<path d="M40.6006 20.3772C37.0991 22.0249 41.0125 27.1742 42.6603 26.7623C44.308 26.3503 44.1021 18.5234 40.6006 20.3772Z" fill="white"/>
<path d="M33.1856 15.4338C33.1856 15.4338 66.7588 20.1711 89.2097 16.8756C89.2097 16.8756 57.6962 22.2308 33.1856 15.4338Z" fill="#FFE861"/>
<g style="mix-blend-mode:multiply" opacity="0.5">
<g style="mix-blend-mode:multiply" opacity="0.5">
<path d="M92.9172 31.0876C92.9172 31.4995 92.9172 31.7055 92.5053 32.1174C91.0635 35.001 86.3262 38.5025 83.6485 37.0607C82.8246 36.6488 82.2066 35.8249 82.0007 35.001C81.3828 31.9114 84.2663 26.9682 86.1201 24.0846C88.5917 20.3771 93.3291 27.998 92.7112 31.2935L92.9172 31.0876Z" fill="#E56D8D"/>
</g>
<g style="mix-blend-mode:multiply" opacity="0.5">
<path d="M80.559 40.3563C80.559 41.1802 80.147 42.416 79.7351 43.6518C78.9112 46.5354 76.0275 44.4757 75.2037 42.21C75.2037 41.7981 74.9977 41.3861 74.9977 40.9742C74.9977 38.5025 77.4694 36.2369 79.7351 37.2667C80.5589 37.6786 80.765 38.7085 80.559 40.1503V40.3563Z" fill="#E56D8D"/>
</g>
<g style="mix-blend-mode:multiply" opacity="0.5">
<path d="M92.9172 31.0876C92.9172 31.4995 92.9172 31.7055 92.5053 32.1174C92.5053 32.1174 92.5053 31.2935 91.8874 28.6159C91.0635 26.1443 88.7978 23.0547 86.3261 25.3204C83.8545 27.586 82.4126 34.795 82.4126 35.001C81.7947 31.9114 84.6783 26.9682 86.532 24.0846C89.0037 20.3771 93.7411 27.998 93.1231 31.2935L92.9172 31.0876Z" fill="#E56D8D"/>
</g>
<g style="mix-blend-mode:multiply" opacity="0.5">
<path d="M80.559 40.3563C80.559 40.3563 78.7052 37.0607 77.0575 37.8846C75.4097 38.7085 75.2037 42.21 75.2037 42.21C75.2037 41.7981 74.9977 41.3861 74.9977 40.9742C74.9977 38.5025 77.4694 36.2369 79.7351 37.2667C80.5589 37.6786 80.765 38.7085 80.559 40.1503V40.3563Z" fill="#E56D8D"/>
</g>
</g>
<g style="mix-blend-mode:multiply" opacity="0.5">
<path d="M95.5949 31.9114C95.5949 31.9114 99.7143 29.8517 101.774 26.3502C103.834 22.8487 100.332 14.1979 100.332 14.1979L95.5949 31.9114Z" fill="#DE5155"/>
</g>
<g style="mix-blend-mode:multiply" opacity="0.5">
<path d="M29.0662 14.8158C29.0662 14.8158 28.4482 17.9054 27.8303 18.3173C27.2124 18.7292 24.3288 24.4964 25.7706 27.792C27.2124 31.0875 32.7737 32.1174 32.7737 32.1174C32.7737 32.1174 30.096 22.0248 29.2722 14.8158H29.0662Z" fill="#DE5155"/>
</g>
<g style="mix-blend-mode:multiply" opacity="0.5">
<path d="M9.08699 27.792C9.7049 33.7651 11.5586 34.589 12.7944 34.1771C14.0303 33.7651 12.1766 21.2009 18.3557 18.5233C18.3557 18.5233 9.29296 17.9053 9.08699 27.792Z" fill="#BE2F55"/>
</g>
<g style="mix-blend-mode:multiply" opacity="0.5">
<path d="M110.631 18.9353C110.631 19.7591 115.574 25.7323 115.574 31.9114C115.574 38.0906 119.488 25.7323 116.192 21.8188C112.896 17.9054 110.631 18.9353 110.631 18.9353Z" fill="#BE2F55"/>
</g>
<g style="mix-blend-mode:screen">
<path d="M13.2064 41.1801C10.1169 40.5622 15.0601 47.9772 21.0333 48.1832C27.0065 48.3891 28.8602 48.1832 28.8602 48.1832C28.8602 48.1832 14.8542 41.3861 13.0004 41.1801H13.2064Z" fill="#FF450C"/>
</g>
<g style="mix-blend-mode:screen">
<path d="M102.598 46.1235C102.598 46.1235 113.102 46.1235 115.574 44.6817C118.046 43.4459 118.252 38.5025 117.634 38.0906C117.016 37.8846 114.544 40.5623 109.807 42.8279C105.069 45.0936 102.598 45.9175 102.598 45.9175V46.1235Z" fill="#FF450C"/>
</g>
<path d="M105.687 15.8456C104.04 16.2576 104.452 12.962 109.395 12.5501C113.308 12.1381 114.956 14.1979 114.956 14.1979C114.956 14.1979 112.896 14.1979 105.687 15.8456Z" fill="white"/>
<path d="M15.472 14.8159C13.4123 13.58 28.6542 13.992 24.1228 16.8756C24.1228 16.8756 20.2094 15.4338 15.472 14.8159Z" fill="white"/>
<path d="M54.1946 92.4671C51.517 92.2611 56.2544 89.1715 59.5499 90.6133C62.8454 92.0551 60.1677 93.085 54.1946 92.4671Z" fill="white"/>
<path d="M106.099 44.6816C105.687 45.2996 109.807 45.0936 110.837 43.2398C111.867 41.3861 106.923 43.6518 106.099 44.6816Z" fill="white"/>
<path d="M25.7706 46.3294C25.7706 47.1533 19.7975 45.9175 20.2094 44.6817C20.4154 43.4458 25.7706 45.5055 25.7706 46.3294Z" fill="white"/>
<g style="mix-blend-mode:multiply" opacity="0.5">
<path d="M84.0604 53.7444C87.9738 50.4488 87.356 61.5713 87.356 61.5713C87.356 61.5713 82.8246 57.6578 84.0604 53.7444Z" fill="#E52F55"/>
</g>
<g style="mix-blend-mode:multiply" opacity="0.5">
<path d="M38.9528 61.9833C38.7468 61.9833 38.5408 61.9833 38.5408 61.9833C38.3348 60.7475 40.8065 53.1266 43.4842 54.1564C43.8961 57.6579 41.0124 61.3654 39.1587 61.7774L38.9528 61.9833Z" fill="#E52F55"/>
</g>
<g style="mix-blend-mode:multiply" opacity="0.5">
<path d="M38.3349 9.0486C38.5409 6.98889 49.6632 2.86945 56.2543 4.10527C62.8454 5.3411 69.2305 13.374 68.6126 14.1979C67.9947 15.0218 41.6304 15.8457 38.1289 9.0486H38.3349Z" fill="#BE2F55"/>
</g>
<g style="mix-blend-mode:multiply" opacity="0.5">
<path d="M70.8783 64.2489C68.4066 64.2489 65.1111 61.5713 67.1708 59.7175C70.4664 56.8339 81.3828 54.1563 85.2963 50.4488L91.4754 44.6816C91.4754 44.6816 90.0335 49.007 85.0902 53.1264C80.1469 57.4518 72.32 64.0429 71.0842 64.0429L70.8783 64.2489Z" fill="#DE5155"/>
</g>
<path d="M79.941 38.2965C80.353 47.1532 73.35 54.7742 64.4932 54.7742C55.6364 54.7742 48.8394 47.3592 49.0454 38.2965C49.2513 29.6457 56.2544 23.0546 64.4932 23.0546C72.732 23.0546 79.5291 29.6457 79.941 38.2965Z" fill="url(#paint9_linear_5_3538)"/>
<g style="mix-blend-mode:soft-light" opacity="0.3">
<path d="M50.4871 44.0638C51.9289 38.2966 77.8813 34.3832 79.3231 35.825C80.7649 37.2667 77.6754 53.3325 65.1111 53.3325C52.3409 53.3325 50.0751 45.5056 50.4871 43.8578V44.0638Z" fill="white"/>
</g>
<path d="M59.138 32.9414C59.138 32.9414 60.9917 32.9414 62.4335 29.0279C62.4335 29.0279 65.1111 27.5861 67.9947 28.2041L68.6126 49.625H62.0216L61.6096 37.2668H59.138V33.1473V32.9414Z" fill="url(#paint10_linear_5_3538)"/>
<path d="M59.138 32.9414V32.1175C59.138 32.1175 61.6097 31.0876 62.0216 28.41C62.0216 28.41 65.729 26.7622 67.9947 27.9981C67.9947 27.9981 65.1112 27.3801 62.6395 28.8219C62.6395 28.8219 61.6096 32.5294 59.138 32.7354V32.9414Z" fill="url(#paint11_linear_5_3538)"/>
<g style="mix-blend-mode:multiply" opacity="0.5">
<path d="M49.2514 38.2966C49.2514 38.2966 52.7529 24.9085 65.1112 24.9085C77.4695 24.9085 79.7351 35.2071 79.7351 35.2071C79.7351 35.2071 77.6754 22.6428 64.2872 23.0548C50.8991 23.4667 49.2514 36.8548 49.2514 38.2966Z" fill="#BE2F55"/>
</g>
<path d="M51.517 47.1534C51.517 47.1534 56.0484 55.1863 65.7291 54.7743C75.4097 54.3624 79.1172 44.8877 79.1172 44.8877C79.1172 44.8877 74.5858 56.4221 65.3171 56.4221C56.0484 56.4221 51.723 47.3593 51.723 47.3593L51.517 47.1534Z" fill="url(#paint12_linear_5_3538)"/>
<defs>
<linearGradient id="paint0_linear_5_3538" x1="83.6485" y1="36.0308" x2="124.225" y2="36.0308" gradientUnits="userSpaceOnUse">
<stop stop-color="#FA9300"/>
<stop offset="0.4" stop-color="#F66A00"/>
<stop offset="1" stop-color="#F63F00"/>
</linearGradient>
<linearGradient id="paint1_linear_5_3538" x1="43.6902" y1="-321.123" x2="3.31975" y2="-321.123" gradientUnits="userSpaceOnUse">
<stop stop-color="#FA9300"/>
<stop offset="0.4" stop-color="#F66A00"/>
<stop offset="1" stop-color="#F63F00"/>
</linearGradient>
<linearGradient id="paint2_linear_5_3538" x1="105.687" y1="62.1892" x2="105.687" y2="14.1979" gradientUnits="userSpaceOnUse">
<stop stop-color="#FF9600"/>
<stop offset="1" stop-color="#FFA900"/>
</linearGradient>
<linearGradient id="paint3_linear_5_3538" x1="21.6512" y1="62.1892" x2="21.6512" y2="14.1979" gradientUnits="userSpaceOnUse">
<stop stop-color="#FF9600"/>
<stop offset="1" stop-color="#FFA900"/>
</linearGradient>
<linearGradient id="paint4_linear_5_3538" x1="3.31975" y1="15.4337" x2="29.89" y2="15.4337" gradientUnits="userSpaceOnUse">
<stop stop-color="#FFE834"/>
<stop offset="1" stop-color="#FFCD00"/>
</linearGradient>
<linearGradient id="paint5_linear_5_3538" x1="98.6844" y1="14.4039" x2="122.783" y2="14.4039" gradientUnits="userSpaceOnUse">
<stop stop-color="#FFCD00"/>
<stop offset="1" stop-color="#FFE834"/>
</linearGradient>
<linearGradient id="paint6_linear_5_3538" x1="28.6542" y1="54.7741" x2="100.95" y2="54.7741" gradientUnits="userSpaceOnUse">
<stop stop-color="#FF9600"/>
<stop offset="1" stop-color="#FFA900"/>
</linearGradient>
<linearGradient id="paint7_linear_5_3538" x1="28.4482" y1="9.46062" x2="100.95" y2="9.46062" gradientUnits="userSpaceOnUse">
<stop stop-color="#FFCD00"/>
<stop offset="1" stop-color="#FFE834"/>
</linearGradient>
<linearGradient id="paint8_linear_5_3538" x1="-0.402865" y1="10.0498" x2="51.8851" y2="8.31521" gradientUnits="userSpaceOnUse">
<stop stop-color="#F63F00"/>
<stop offset="0.6" stop-color="#F66A00"/>
<stop offset="1" stop-color="#FA9300"/>
</linearGradient>
<linearGradient id="paint9_linear_5_3538" x1="64.6992" y1="70.428" x2="64.6992" y2="37.2666" gradientUnits="userSpaceOnUse">
<stop stop-color="#EF6300"/>
<stop offset="1" stop-color="#E13E00"/>
</linearGradient>
<linearGradient id="paint10_linear_5_3538" x1="63.8753" y1="49.4191" x2="63.8753" y2="27.7921" gradientUnits="userSpaceOnUse">
<stop stop-color="#FF9600"/>
<stop offset="1" stop-color="#FFA900"/>
</linearGradient>
<linearGradient id="paint11_linear_5_3538" x1="59.138" y1="30.0578" x2="67.9947" y2="30.0578" gradientUnits="userSpaceOnUse">
<stop stop-color="#FFCD00"/>
<stop offset="1" stop-color="#FFE834"/>
</linearGradient>
<linearGradient id="paint12_linear_5_3538" x1="51.517" y1="50.4489" x2="78.9112" y2="50.4489" gradientUnits="userSpaceOnUse">
<stop stop-color="#FFCD00"/>
<stop offset="1" stop-color="#FFE834"/>
</linearGradient>
</defs>
</svg>
